<?xml version="1.0" standalone="no"?>
<!DOCTYPE svg PUBLIC "-//W3C//DTD SVG 20010904//EN"
 "http://www.w3.org/TR/2001/REC-SVG-20010904/DTD/svg10.dtd">
<svg version="1.0" xmlns="http://www.w3.org/2000/svg"
 width="256.000000pt" height="256.000000pt" viewBox="0 0 256.000000 256.000000"
 preserveAspectRatio="xMidYMid meet">

<g transform="translate(0.000000,256.000000) scale(0.100000,-0.100000)"
fill="#000000" stroke="none">
<path d="M1095 2444 c-147 -22 -271 -66 -402 -142 -138 -79 -149 -88 -134
-106 8 -10 9 -16 1 -21 -6 -4 -9 -1 -8 6 2 6 -3 14 -10 16 -8 3 -10 -1 -6 -11
5 -12 2 -15 -12 -9 -13 5 -15 3 -9 -7 5 -9 4 -11 -4 -6 -17 11 -41 -12 -34
-31 5 -12 3 -14 -7 -8 -8 5 -11 4 -7 -2 4 -6 19 -8 33 -5 24 4 26 2 21 -17 -3
-11 -1 -19 4 -15 5 3 9 0 9 -6 0 -7 7 -10 15 -6 8 3 15 1 15 -5 0 -11 54 -69
65 -69 7 0 75 -67 75 -75 0 -4 -4 -4 -9 0 -5 3 -13 0 -17 -6 -4 -7 -3 -9 3 -6
6 4 14 0 17 -9 4 -9 13 -14 21 -10 8 3 15 1 15 -4 0 -6 7 -10 16 -10 8 0 13 4
10 9 -3 4 6 6 19 3 14 -2 25 -9 25 -14 0 -6 8 -4 18 3 9 7 14 10 10 5 -7 -8
48 -61 63 -61 4 0 11 -4 16 -9 5 -5 2 -6 -7 -1 -13 7 -13 6 0 -6 8 -8 20 -21
28 -29 10 -11 12 -11 6 -1 -5 9 -3 12 5 7 6 -4 9 -11 6 -15 -7 -12 30 -43 40
-34 4 5 5 2 1 -5 -4 -7 -1 -15 8 -18 9 -3 13 -11 9 -17 -4 -6 0 -8 10 -4 9 3
16 3 15 -1 -3 -14 14 -42 23 -36 5 3 9 0 9 -6 0 -6 7 -10 16 -8 10 2 18 -3 20
-10 1 -7 0 -8 -3 -2 -2 5 -9 8 -14 4 -13 -8 -11 -42 4 -47 10 -4 10 -7 0 -18
-7 -7 -13 -20 -13 -28 0 -8 -10 -26 -22 -39 -23 -24 -23 -24 -1 -12 11 8 28
27 37 44 9 17 14 22 10 11 -3 -11 -7 -24 -8 -30 -1 -5 -5 -17 -10 -25 -4 -8 2
-4 13 9 12 13 21 18 21 13 0 -6 12 -17 28 -24 16 -8 27 -21 27 -33 0 -11 7
-20 15 -20 8 0 22 -10 30 -22 9 -12 29 -32 45 -45 17 -12 32 -26 34 -31 2 -5
14 -12 27 -17 16 -7 24 -17 24 -34 0 -21 30 -61 30 -40 0 5 5 2 10 -6 5 -8 14
-16 20 -16 5 -1 12 -2 15 -3 3 0 -2 -13 -12 -28 -17 -27 -17 -27 1 -13 10 8
28 15 39 16 12 2 16 0 9 -3 -10 -4 -10 -8 0 -21 7 -9 8 -13 3 -10 -6 4 -16 -2
-23 -12 -11 -19 -10 -19 34 0 25 11 43 16 40 11 -3 -5 5 -8 18 -7 13 0 22 4
19 9 -2 4 1 7 6 7 6 0 11 -9 11 -20 0 -11 4 -20 9 -20 12 0 71 -59 71 -71 0
-5 5 -9 11 -9 5 0 7 5 3 12 -4 7 -3 8 4 4 6 -4 9 -13 5 -21 -4 -13 3 -17 27
-17 3 0 14 -9 25 -21 11 -11 13 -16 5 -12 -10 5 -8 1 4 -13 11 -12 25 -22 33
-22 8 0 12 -4 8 -9 -3 -5 7 -19 22 -30 21 -17 27 -30 27 -64 1 -25 5 -41 12
-40 7 1 11 -5 10 -15 0 -9 9 -21 22 -27 18 -8 23 -16 19 -38 -3 -21 0 -26 12
-22 22 7 94 -53 87 -72 -4 -9 -2 -11 6 -7 8 5 9 2 5 -9 -7 -19 8 -33 18 -17
10 17 44 -18 40 -41 -2 -10 1 -22 7 -25 6 -4 8 -3 5 3 -4 6 3 13 14 16 11 3
23 15 26 26 3 12 9 21 13 21 10 0 80 96 117 160 141 249 185 573 112 823 -105
363 -303 600 -629 756 -137 66 -258 92 -435 96 -82 2 -163 1 -180 -1z m330
-549 c161 -41 282 -139 353 -285 33 -66 44 -102 50 -162 8 -77 3 -98 -24 -98
-14 0 -24 32 -24 83 0 65 -38 158 -96 233 -87 114 -195 175 -340 193 -70 8
-79 13 -71 36 8 20 74 20 152 0z m-33 -140 c72 -18 122 -47 176 -98 58 -56 88
-109 106 -187 18 -75 19 -90 7 -109 -11 -16 -55 -5 -48 13 8 20 -13 117 -33
155 -49 95 -141 160 -261 185 -65 13 -74 19 -66 41 8 19 46 19 119 0z m3 -154
c50 -23 108 -76 129 -118 9 -18 16 -35 16 -38 -1 -3 2 -21 6 -41 8 -45 -15
-76 -40 -54 -9 7 -16 23 -16 37 0 33 -44 117 -75 141 -15 12 -51 26 -81 33
-56 13 -81 30 -69 49 10 16 86 11 130 -9z"/>
<path d="M648 1909 c6 -9 10 -18 7 -20 -2 -3 5 -6 17 -6 11 -1 19 -1 17 0 -2
1 -15 11 -29 22 -15 12 -20 14 -12 4z"/>
<path d="M616 1811 c-4 -5 -2 -12 3 -15 5 -4 12 -2 15 3 4 5 2 12 -3 15 -5 4
-12 2 -15 -3z"/>
<path d="M760 1814 c0 -13 22 -44 31 -44 6 0 3 8 -7 17 -15 16 -15 17 2 24 17
7 17 8 -3 8 -13 1 -23 -2 -23 -5z"/>
<path d="M803 1789 c9 -6 15 -13 13 -17 -3 -4 4 -8 15 -8 19 0 18 1 -3 18 -13
10 -27 18 -33 17 -5 0 -2 -4 8 -10z"/>
<path d="M852 1751 c-11 -6 -10 -10 4 -15 9 -3 19 -4 22 -1 3 3 0 5 -7 5 -7 0
-9 5 -6 10 7 12 4 12 -13 1z"/>
<path d="M864 1711 c7 -11 46 -35 46 -28 0 3 -12 12 -26 22 -15 9 -23 12 -20
6z"/>
<path d="M923 1664 c-5 -13 -8 -13 -15 -2 -8 10 -9 10 -6 -1 7 -23 25 -24 31
-1 6 24 -1 27 -10 4z"/>
<path d="M943 1637 c0 -10 5 -17 10 -17 5 0 15 -7 22 -17 10 -13 13 -14 20 -2
5 8 5 11 1 7 -5 -4 -18 5 -30 19 -17 20 -23 22 -23 10z"/>
<path d="M910 1570 c-9 -6 -10 -10 -3 -10 6 0 15 5 18 10 8 12 4 12 -15 0z"/>
<path d="M1092 1464 c-7 -8 -8 -14 -3 -14 10 0 25 19 20 25 -2 1 -10 -3 -17
-11z"/>
<path d="M1522 1077 c10 -8 15 -17 11 -21 -3 -3 -14 1 -24 10 -14 12 -18 13
-25 2 -4 -7 -3 -10 1 -5 5 4 17 -1 28 -10 10 -10 22 -18 26 -18 3 0 5 -2 4 -5
-1 -3 7 -7 18 -7 10 -1 19 3 19 8 0 6 -5 7 -10 4 -6 -3 -14 5 -19 18 -5 13
-18 27 -28 31 -17 6 -17 5 -1 -7z"/>
<path d="M1577 1004 c-9 -10 21 -36 33 -29 5 3 10 1 10 -4 0 -6 -6 -11 -12
-11 -9 0 -8 -3 2 -10 9 -6 17 -5 21 1 4 7 12 5 22 -5 8 -9 21 -16 29 -16 7 0
-4 11 -25 26 -21 14 -35 29 -32 33 3 5 -2 11 -10 14 -10 4 -12 1 -9 -11 5 -16
4 -16 -9 0 -8 10 -17 15 -20 12z"/>
<path d="M1641 933 c-1 -18 37 -54 44 -43 4 6 1 10 -5 10 -6 0 -8 5 -5 10 3 6
0 10 -9 10 -8 0 -17 6 -19 13 -4 10 -6 10 -6 0z"/>
<path d="M1705 900 c-5 -8 -4 -11 2 -7 6 4 14 -1 18 -11 7 -18 4 -28 -7 -25
-4 2 -5 -4 -2 -12 4 -8 11 -15 17 -15 6 0 7 3 4 7 -4 3 -2 12 3 18 7 9 5 19
-8 35 -15 18 -21 20 -27 10z"/>
<path d="M1690 869 c0 -5 5 -7 10 -4 6 3 10 8 10 11 0 2 -4 4 -10 4 -5 0 -10
-5 -10 -11z"/>
<path d="M1795 800 c-3 -5 1 -10 10 -10 9 0 13 5 10 10 -3 6 -8 10 -10 10 -2
0 -7 -4 -10 -10z"/>
<path d="M1785 770 c-11 -18 26 -23 43 -6 15 15 15 16 -1 16 -10 0 -15 -4 -12
-10 3 -5 -1 -10 -10 -10 -9 0 -13 5 -10 10 3 6 4 10 1 10 -3 0 -8 -5 -11 -10z"/>
<path d="M1796 728 c3 -5 10 -6 15 -3 13 9 11 12 -6 12 -8 0 -12 -4 -9 -9z"/>
<path d="M2014 543 c2 -10 6 -17 10 -16 15 3 16 11 2 22 -12 10 -14 9 -12 -6z"/>
</g>
</svg>
